<svg xmlns="http://www.w3.org/2000/svg" viewBox="0 0 96 96" x="0px" y="0px"><title>collection</title><rect x="17.63" y="45.48" width="58.46" height="5.04" transform="translate(-20.22 47.19) rotate(-45)"/><rect x="44.34" y="18.77" width="5.04" height="58.46" transform="translate(-20.22 47.19) rotate(-45)"/><path d="M46.86,92.28A44.28,44.28,0,0,1,15.55,16.69,44.28,44.28,0,0,1,78.17,79.31,44,44,0,0,1,46.86,92.28Zm0-83.51a39.23,39.23,0,0,0-27.74,67A39.23,39.23,0,0,0,74.6,20.26h0A39,39,0,0,0,46.86,8.77Z"/></svg>
