<svg xmlns="http://www.w3.org/2000/svg" xmlns:xlink="http://www.w3.org/1999/xlink" version="1.1" x="0px" y="0px" viewBox="0 0 100 100" style="enable-background:new 0 0 100 100;" xml:space="preserve"><path d="M50,9.8c22.1,0,40,17.9,40,40c0,10.5-4,20.4-11.4,27.9c-7.3,7.5-17,11.8-27.5,12.1l-41.2,0l0-40.3  C10.2,27.6,28.1,9.8,50,9.8 M50,4.8C25.3,4.8,5.2,24.7,5,49.4l0,45.4l46.2,0C75.5,94.1,95,74.2,95,49.8C95,24.9,74.9,4.8,50,4.8  L50,4.8z"/><g><path d="M54.4,67.8h5.3v5.7H40.2v-5.7h5.3V44.9h-5.3v-5.7h14.2V67.8z M54.1,25.2v8.2h-9.7v-8.2H54.1z"/></g></svg>
