<?xml version="1.0" standalone="no"?>
<!DOCTYPE svg PUBLIC "-//W3C//DTD SVG 20010904//EN"
 "http://www.w3.org/TR/2001/REC-SVG-20010904/DTD/svg10.dtd">
<svg version="1.0" xmlns="http://www.w3.org/2000/svg"
 width="229.000000pt" height="229.000000pt" viewBox="0 0 229.000000 229.000000"
 preserveAspectRatio="xMidYMid meet">
<metadata>
Created by potrace 1.11, written by Peter Selinger 2001-2013
</metadata>
<g transform="translate(0.000000,229.000000) scale(0.100000,-0.100000)"
fill="#000000" stroke="none">
<path d="M1241 2051 c-16 -12 -20 -20 -12 -25 6 -4 9 -12 6 -17 -9 -14 -25
-11 -25 5 0 8 -4 17 -9 20 -13 8 -90 -44 -97 -66 -3 -10 -10 -18 -15 -18 -19
0 -37 -66 -37 -137 1 -56 4 -70 14 -66 8 3 14 0 14 -6 0 -6 -4 -11 -9 -11 -5
0 -16 -12 -26 -26 -9 -15 -12 -24 -7 -20 6 3 13 0 15 -6 3 -7 6 -3 6 9 1 17 6
22 21 20 31 -5 35 -16 12 -33 -12 -8 -20 -19 -17 -24 8 -13 45 12 45 30 0 9 7
25 15 37 16 23 12 96 -6 119 -13 16 43 88 80 104 37 15 148 3 191 -20 10 -5
21 -6 25 -2 4 4 21 -9 38 -30 39 -45 92 -60 100 -29 3 12 1 24 -4 27 -5 3 -9
12 -9 20 0 9 -16 36 -36 60 -28 33 -43 44 -65 44 -17 0 -29 5 -29 13 0 19 -70
47 -116 47 -22 0 -49 -8 -63 -19z m29 -11 c-8 -5 -19 -10 -25 -10 -5 0 -3 5 5
10 8 5 20 10 25 10 6 0 3 -5 -5 -10z m60 -56 c0 -2 -11 -4 -25 -4 -14 0 -25 4
-25 9 0 4 11 6 25 3 14 -2 25 -6 25 -8z"/>
<path d="M1200 1830 c0 -5 12 -10 28 -11 24 0 25 -1 9 -12 -10 -7 -28 -20 -40
-30 -22 -18 -22 -19 -2 -30 11 -7 35 -15 53 -18 29 -5 35 -3 49 24 14 29 14
31 -7 47 -13 10 -20 22 -16 29 5 7 -6 11 -33 11 -23 0 -41 -4 -41 -10z m83
-54 c3 -7 0 -13 -6 -13 -7 -1 -28 -4 -47 -8 -35 -6 -35 -6 -14 12 25 22 60 27
67 9z"/>
<path d="M1403 1833 c-13 -2 -23 -10 -23 -18 0 -7 -7 -15 -15 -19 -19 -7 -19
-26 2 -77 15 -38 18 -40 29 -24 7 9 28 18 46 19 28 2 35 -3 50 -32 10 -19 15
-38 13 -42 -3 -4 1 -23 9 -41 l14 -32 16 54 c8 31 15 69 15 85 0 16 3 50 6 75
6 46 6 46 -21 41 -16 -3 -30 1 -35 9 -8 12 -11 12 -19 -1 -5 -8 -10 -25 -10
-37 0 -27 -9 -29 -36 -8 -19 14 -19 15 4 21 12 3 22 10 22 14 0 8 -27 21 -38
19 -4 -1 -17 -4 -29 -6z m21 -59 c27 -10 18 -29 -14 -29 -22 0 -30 5 -30 18 0
17 16 22 44 11z m116 -119 c0 -18 -1 -18 -16 -3 -10 10 -14 23 -10 34 6 16 8
16 16 4 6 -8 10 -24 10 -35z"/>
<path d="M1345 1679 c-4 -5 -16 -8 -28 -8 -66 2 -97 -39 -103 -135 -3 -55 9
-70 18 -21 3 17 12 20 58 21 30 1 45 -1 33 -3 -14 -3 -20 -9 -16 -19 3 -8 -1
-14 -11 -14 -9 0 -16 -4 -16 -10 0 -10 27 -15 63 -12 9 1 17 -3 17 -9 0 -5 5
-7 10 -4 6 3 10 2 10 -3 0 -14 -25 -22 -65 -22 -19 0 -36 -4 -40 -10 -8 -12
-73 20 -78 40 -4 11 -5 11 -6 -2 0 -10 -6 -18 -12 -18 -7 0 1 -12 17 -27 16
-14 36 -36 44 -48 27 -39 103 -120 97 -103 -6 18 18 33 36 21 6 -4 8 0 4 10
-5 13 -1 17 14 17 12 0 23 8 26 20 3 11 9 20 14 20 11 0 7 -43 -6 -53 -5 -4 4
-5 20 -1 35 8 45 15 28 21 -9 3 -11 18 -6 49 4 30 2 44 -6 44 -6 0 -11 -11
-11 -25 0 -26 -14 -33 -25 -14 -4 5 5 28 20 51 23 35 26 47 20 85 -5 34 -10
43 -21 39 -12 -5 -14 -1 -9 15 5 15 4 19 -4 15 -7 -4 -11 1 -11 13 0 11 -5 30
-10 43 -12 26 -57 51 -65 37z m-57 -41 c15 -15 16 -32 2 -23 -5 3 -10 1 -10
-4 0 -6 13 -11 29 -11 17 0 33 -4 36 -10 4 -6 -8 -10 -29 -10 -19 0 -42 -3
-52 -7 -11 -4 -15 -3 -11 4 4 6 2 13 -5 15 -10 4 -10 10 -1 31 14 30 23 33 41
15z m44 4 c11 -4 14 -12 10 -19 -6 -9 -12 -7 -25 7 -17 21 -14 23 15 12z m62
-27 c3 -8 2 -15 -3 -15 -5 0 -14 7 -21 15 -10 12 -10 15 3 15 8 0 17 -7 21
-15z m-154 -55 c0 -5 -5 -10 -11 -10 -5 0 -7 5 -4 10 3 6 8 10 11 10 2 0 4 -4
4 -10z m187 -52 c-3 -8 -6 -5 -6 6 -1 11 2 17 5 13 3 -3 4 -12 1 -19z"/>
<path d="M1040 1639 c0 -13 5 -31 10 -39 7 -11 8 -5 4 20 -8 43 -14 51 -14 19z"/>
<path d="M1463 1626 c-4 -50 8 -103 22 -103 8 0 15 4 15 9 0 4 -4 8 -9 8 -14
0 -23 52 -12 63 15 15 14 34 -2 40 -8 3 -13 -4 -14 -17z"/>
<path d="M1111 1544 c0 -11 3 -14 6 -6 3 7 2 16 -1 19 -3 4 -6 -2 -5 -13z"/>
<path d="M1140 1492 c0 -5 7 -15 15 -22 8 -7 15 -8 15 -2 0 5 -7 15 -15 22 -8
7 -15 8 -15 2z"/>
<path d="M1021 1434 c-30 -6 -93 -15 -140 -19 -65 -5 -97 -13 -129 -33 -58
-33 -136 -128 -182 -221 -74 -152 -95 -182 -138 -201 -63 -29 -96 -86 -101
-177 l-3 -74 83 -80 c82 -77 84 -81 82 -123 -3 -80 -57 -156 -111 -156 -30 0
-50 47 -58 133 -11 120 -23 116 -39 -16 -8 -64 -9 -97 -2 -109 24 -38 105 -50
156 -24 65 34 121 136 121 219 0 46 -30 96 -81 137 -53 42 -53 43 18 79 51 25
50 25 56 4 4 -15 6 -14 12 5 5 16 26 32 64 48 63 28 241 88 245 82 2 -1 11
-18 20 -35 9 -18 18 -33 20 -33 2 0 16 22 33 48 34 55 44 58 243 87 63 10 117
19 119 21 2 2 -2 18 -9 36 -29 75 -93 225 -106 250 -20 37 -19 69 3 61 10 -4
14 -2 10 4 -4 6 -1 14 5 16 8 3 6 6 -4 6 -10 1 -19 7 -19 14 -1 6 -2 17 -4 22
-1 6 -3 14 -3 18 -4 19 -46 -19 -79 -72 -39 -63 -84 -104 -57 -53 15 29 38
127 32 141 -2 4 -27 2 -57 -5z m-595 -539 c-15 -19 -32 -35 -38 -35 -12 0 17
49 40 67 27 22 26 5 -2 -32z"/>
<path d="M1496 1398 c1 -24 5 -52 9 -64 5 -17 1 -23 -22 -33 -23 -9 -28 -18
-30 -49 -1 -20 -18 -84 -38 -141 -19 -58 -35 -106 -35 -106 0 -1 73 -5 163 -8
253 -10 405 -53 481 -137 40 -45 46 -70 16 -70 -11 0 -20 -5 -20 -11 0 -6 9
-13 20 -16 25 -7 25 -8 -2 -80 -21 -57 -64 -117 -78 -108 -4 3 -10 37 -14 77
-4 40 -9 81 -12 90 -3 11 2 17 18 20 13 2 23 8 23 13 0 6 -38 11 -88 13 l-88
3 3 52 c3 52 3 52 -27 52 -26 0 -30 -4 -33 -30 -5 -55 -12 -75 -27 -75 -8 0
-15 -7 -15 -15 0 -8 7 -15 16 -15 10 0 14 -6 10 -17 -3 -10 -8 -45 -11 -78 -4
-33 -13 -106 -21 -161 -8 -56 -14 -106 -14 -111 0 -11 -50 -36 -57 -29 -2 2 7
93 21 203 14 109 26 204 26 211 0 8 -16 12 -45 12 -32 0 -45 -4 -45 -14 0 -8
5 -16 12 -18 8 -3 7 -39 -6 -139 -29 -226 -36 -257 -56 -262 -37 -10 -39 4
-19 153 32 240 29 269 -29 291 -19 7 -33 5 -58 -10 -19 -12 -36 -16 -39 -10
-4 5 -24 9 -46 9 -28 0 -39 -4 -39 -15 0 -8 7 -15 15 -15 11 0 14 -7 10 -22
-3 -13 -14 -95 -25 -183 -24 -186 -26 -195 -47 -195 -8 0 -13 -6 -11 -12 6
-16 128 -24 128 -9 0 6 -7 14 -15 18 -13 8 -12 27 5 158 11 83 25 163 30 179
14 40 39 66 63 66 19 0 19 -5 14 -67 -4 -38 -14 -128 -24 -200 -15 -118 -19
-133 -36 -133 -10 0 -17 -5 -14 -12 2 -9 26 -13 70 -13 106 0 75 -27 -33 -30
-42 -1 -56 -5 -58 -17 -2 -12 -41 -23 -165 -47 -199 -38 -322 -51 -469 -51
-230 0 -423 49 -513 129 -19 17 -24 19 -15 6 81 -110 365 -171 679 -145 145
11 307 37 411 64 30 8 57 13 58 11 7 -7 -19 -74 -31 -79 -7 -2 -1 -5 13 -5 22
-1 28 6 39 44 12 40 44 75 57 62 7 -6 -28 -91 -40 -99 -6 -4 0 -8 14 -8 22 0
28 8 45 62 19 59 22 62 70 79 28 10 65 18 83 18 21 1 32 6 32 16 0 8 4 15 9
15 5 0 16 2 23 5 9 4 19 -4 26 -20 9 -20 19 -25 46 -25 42 0 73 35 82 90 4 26
16 45 36 60 16 12 32 20 34 17 10 -10 24 -141 18 -161 -17 -57 -48 -116 -60
-116 -10 0 -14 15 -15 50 -2 70 -3 73 -16 77 -13 5 -29 -116 -19 -142 8 -21
59 -19 80 4 19 20 48 98 140 364 46 133 62 167 76 167 14 0 18 7 16 33 -2 17
-4 47 -5 65 -1 23 -13 45 -40 75 -22 24 -41 57 -45 77 -3 19 -17 53 -31 75
-13 22 -40 72 -59 112 -41 85 -115 169 -171 194 -22 9 -62 20 -90 24 -62 7
-168 36 -176 48 -3 4 -5 -11 -3 -35z m386 -760 l15 -123 -26 -22 c-26 -23 -26
-23 -31 -2 -8 33 -25 27 -28 -11 -2 -26 -9 -38 -29 -47 -15 -7 -28 -11 -30 -9
-2 2 6 78 19 170 l22 166 36 0 36 0 16 -122z m107 -99 c-16 -48 -29 -59 -29
-24 0 25 27 71 37 62 2 -2 -2 -19 -8 -38z m-186 -134 c-6 -30 -28 -49 -48 -41
-23 9 -18 30 13 48 36 23 40 22 35 -7z"/>
<path d="M1398 1261 c-42 -20 -57 -31 -36 -27 17 3 78 35 78 41 0 6 3 7 -42
-14z"/>
<path d="M1622 908 c-11 -40 4 -78 29 -78 34 0 53 72 27 98 -23 23 -47 14 -56
-20z"/>
<path d="M704 810 c-113 -45 -167 -359 -78 -455 35 -38 88 -35 128 8 31 33 70
132 59 149 -8 14 -18 -1 -33 -51 -17 -53 -64 -103 -94 -99 -40 6 -55 77 -40
191 l7 46 86 3 86 3 3 62 c5 114 -47 174 -124 143z m66 -54 c3 -16 3 -49 1
-73 l-3 -43 -54 0 c-30 0 -54 4 -54 9 0 16 31 96 46 119 22 33 57 26 64 -12z"/>
<path d="M980 798 c-14 -6 -49 -10 -77 -9 -52 3 -69 -9 -39 -26 11 -7 9 -41
-13 -205 -23 -177 -27 -198 -44 -198 -10 0 -17 -6 -15 -12 6 -17 117 -23 132
-8 8 8 4 12 -12 16 -12 4 -22 7 -22 8 0 1 9 67 20 146 22 157 34 205 58 233
21 24 32 6 32 -56 0 -27 5 -58 12 -70 6 -12 12 -62 12 -112 1 -72 6 -98 23
-131 55 -104 157 -68 199 71 13 46 11 71 -5 60 -5 -2 -14 -24 -20 -49 -12 -51
-60 -106 -90 -106 -37 0 -51 82 -35 204 l7 46 84 0 85 0 -4 74 c-3 61 -8 79
-27 100 -34 36 -66 41 -107 15 -38 -23 -48 -38 -82 -119 -12 -30 -21 -44 -18
-30 3 14 8 53 12 87 6 55 4 62 -14 72 -24 13 -20 13 -52 -1z m228 -77 c6 -78
-2 -91 -53 -91 -51 0 -53 5 -30 70 20 56 33 72 59 68 17 -2 22 -11 24 -47z"/>
<path d="M1514 291 c-61 -37 -65 -121 -5 -121 55 0 106 97 66 127 -24 17 -24
17 -61 -6z m51 -1 c16 -26 -51 -127 -71 -107 -10 10 7 65 27 92 22 27 34 31
44 15z"/>
<path d="M1608 235 c2 -36 6 -65 9 -65 7 0 42 43 43 52 0 4 -6 5 -14 2 -11 -4
-12 3 -6 35 7 37 5 41 -14 41 -20 0 -21 -4 -18 -65z"/>
<path d="M1667 238 c3 -69 6 -76 26 -59 10 8 13 26 9 60 -4 42 -2 50 14 54 11
3 3 5 -16 6 l-36 1 3 -62z"/>
<path d="M1753 293 c4 -3 -5 -22 -19 -40 -14 -19 -24 -36 -21 -39 2 -2 15 10
29 28 39 52 41 58 22 58 -10 0 -14 -3 -11 -7z"/>
</g>
</svg>
